<svg xmlns="http://www.w3.org/2000/svg" viewBox="0 0 225.342 50.299"><defs><style>.cls-1{fill:#1f2021}</style></defs><g id="Rescue_Logo_-_Color_R_" data-name="Rescue Logo - Color (R)" transform="translate(-40 -40)"><g id="Group_114" data-name="Group 114" transform="translate(40 40)"><g id="Group_106" data-name="Group 106" transform="translate(69.732 11.958)"><path id="Path_2289" data-name="Path 2289" class="cls-1" d="M109.668 42.086l-6.278-8.894h-5.606v8.894H93.3V16.6h11.36c5.9 0 9.492 3.064 9.492 8.072 0 4.26-2.541 6.8-6.054 7.773l6.876 9.641h-5.307zm-5.307-21.45h-6.5v8.6h6.577c3.214 0 5.232-1.644 5.232-4.335-.077-2.77-2.02-4.265-5.308-4.265z" transform="translate(-93.3 -16.152)"/><path id="Path_2290" data-name="Path 2290" class="cls-1" d="M147.509 20.561h-14.425v6.652h12.781v4.036h-12.781v6.876h14.649v4.036H128.6V16.6h18.909z" transform="translate(-102.217 -16.152)"/><path id="Path_2291" data-name="Path 2291" class="cls-1" d="M171.41 27.136c5.381 1.345 8.221 3.214 8.221 7.549 0 4.783-3.737 7.623-9.118 7.623A15.418 15.418 0 01159.9 38.2l2.691-3.214a11.822 11.822 0 008.072 3.289c2.765 0 4.559-1.271 4.559-3.214 0-1.868-1.046-2.84-5.755-3.961-5.456-1.345-8.52-2.915-8.52-7.623 0-4.484 3.662-7.474 8.745-7.474a14.109 14.109 0 019.268 3.214l-2.392 3.363a11.519 11.519 0 00-6.951-2.616c-2.616 0-4.185 1.345-4.185 3.064-.076 2.09 1.12 2.987 5.978 4.108z" transform="translate(-110.123 -16)"/><path id="Path_2292" data-name="Path 2292" class="cls-1" d="M204.2 42.383a12.861 12.861 0 01-13-13.154A12.912 12.912 0 01204.354 16a13.449 13.449 0 0110.015 3.961l-2.915 3.289a10.258 10.258 0 00-7.175-3.139c-4.858 0-8.446 4.036-8.446 9.044s3.513 9.118 8.446 9.118c3.139 0 5.157-1.271 7.325-3.289l2.915 2.915a13.108 13.108 0 01-10.319 4.484z" transform="translate(-118.03 -16)"/><path id="Path_2293" data-name="Path 2293" class="cls-1" d="M251.424 31.025c0 7.623-4.335 11.435-10.987 11.435S229.6 38.648 229.6 31.249V16.6h4.484v14.5c0 4.709 2.466 7.325 6.428 7.325s6.428-2.392 6.428-7.1V16.6h4.484z" transform="translate(-127.729 -16.152)"/><path id="Path_2294" data-name="Path 2294" class="cls-1" d="M285.209 20.561h-14.425v6.652h12.781v4.036h-12.781v6.876h14.649v4.036H266.3V16.6h18.909z" transform="translate(-137 -16.152)"/></g><g id="Group_113" data-name="Group 113"><g id="Group_110" data-name="Group 110" transform="translate(21.974)"><g id="Group_109" data-name="Group 109"><g id="Group_107" data-name="Group 107"><path id="Path_2295" data-name="Path 2295" d="M57.8 37.3L35.9 0l-6.5 11.809L44.124 37.3z" transform="translate(-29.4)" fill="#717375"/></g></g></g><g id="Group_111" data-name="Group 111" transform="translate(14.724 38.342)"><path id="Path_2297" data-name="Path 2297" class="cls-1" d="M19.7 63.258h43.573L55.949 51.3h-29.3z" transform="translate(-19.7 -51.3)"/></g><g id="Group_112" data-name="Group 112" transform="translate(0 12.93)"><path id="Path_2298" data-name="Path 2298" d="M21.3 17.3L0 54.67h13.528L20.4 42.712l7.848-13.528z" transform="translate(0 -17.3)" fill="#b0ff00"/></g></g></g><g id="Group_115" data-name="Group 115" transform="translate(261.753 74.306)"><path id="Path_2299" data-name="Path 2299" class="cls-1" d="M299.764 48.964a1.8 1.8 0 11.523-1.271 1.8 1.8 0 01-.523 1.271zm-2.392-2.317a1.626 1.626 0 101.121-.448 1.521 1.521 0 00-1.12.448zm1.046.075c.224 0 .448 0 .523.075.224.075.3.224.3.523a.411.411 0 01-.224.374c-.075.075-.15.075-.3.075a.411.411 0 01.374.224.449.449 0 01.075.3v.374h-.3v-.224a.632.632 0 00-.149-.448.56.56 0 00-.374-.075h-.3v.747h-.374v-1.945zm.374.3c-.075-.075-.224-.075-.448-.075h-.3v.747h.3c.149 0 .224 0 .3-.075.149-.075.224-.149.224-.3.074-.148-.001-.219-.075-.298z" transform="translate(-296.7 -45.9)"/></g></g></svg>